<svg width="199" height="64" viewBox="0 0 199 64" fill="none" xmlns="http://www.w3.org/2000/svg">
<path d="M29.4 22.15L23.22 43H19.35L14.97 27.22L10.32 43L6.48 43.03L0.57 22.15H4.2L8.52 39.13L13.2 22.15H17.04L21.39 39.04L25.74 22.15H29.4ZM47.3707 34.33C47.3707 34.95 47.3307 35.51 47.2507 36.01H34.6207C34.7207 37.33 35.2107 38.39 36.0907 39.19C36.9707 39.99 38.0507 40.39 39.3307 40.39C41.1707 40.39 42.4707 39.62 43.2307 38.08H46.9207C46.4207 39.6 45.5107 40.85 44.1907 41.83C42.8907 42.79 41.2707 43.27 39.3307 43.27C37.7507 43.27 36.3307 42.92 35.0707 42.22C33.8307 41.5 32.8507 40.5 32.1307 39.22C31.4307 37.92 31.0807 36.42 31.0807 34.72C31.0807 33.02 31.4207 31.53 32.1007 30.25C32.8007 28.95 33.7707 27.95 35.0107 27.25C36.2707 26.55 37.7107 26.2 39.3307 26.2C40.8907 26.2 42.2807 26.54 43.5007 27.22C44.7207 27.9 45.6707 28.86 46.3507 30.1C47.0307 31.32 47.3707 32.73 47.3707 34.33ZM43.8007 33.25C43.7807 31.99 43.3307 30.98 42.4507 30.22C41.5707 29.46 40.4807 29.08 39.1807 29.08C38.0007 29.08 36.9907 29.46 36.1507 30.22C35.3107 30.96 34.8107 31.97 34.6507 33.25H43.8007ZM49.5963 34.66C49.5963 33 49.9363 31.53 50.6163 30.25C51.3163 28.97 52.2563 27.98 53.4363 27.28C54.6363 26.56 55.9563 26.2 57.3963 26.2C58.6963 26.2 59.8263 26.46 60.7863 26.98C61.7663 27.48 62.5463 28.11 63.1263 28.87V26.47H66.5763V43H63.1263V40.54C62.5463 41.32 61.7563 41.97 60.7563 42.49C59.7563 43.01 58.6163 43.27 57.3363 43.27C55.9163 43.27 54.6163 42.91 53.4363 42.19C52.2563 41.45 51.3163 40.43 50.6163 39.13C49.9363 37.81 49.5963 36.32 49.5963 34.66ZM63.1263 34.72C63.1263 33.58 62.8863 32.59 62.4063 31.75C61.9463 30.91 61.3363 30.27 60.5763 29.83C59.8163 29.39 58.9963 29.17 58.1163 29.17C57.2363 29.17 56.4163 29.39 55.6563 29.83C54.8963 30.25 54.2763 30.88 53.7963 31.72C53.3363 32.54 53.1063 33.52 53.1063 34.66C53.1063 35.8 53.3363 36.8 53.7963 37.66C54.2763 38.52 54.8963 39.18 55.6563 39.64C56.4363 40.08 57.2563 40.3 58.1163 40.3C58.9963 40.3 59.8163 40.08 60.5763 39.64C61.3363 39.2 61.9463 38.56 62.4063 37.72C62.8863 36.86 63.1263 35.86 63.1263 34.72ZM75.0584 29.26V38.41C75.0584 39.03 75.1984 39.48 75.4784 39.76C75.7784 40.02 76.2784 40.15 76.9784 40.15H79.0784V43H76.3784C74.8384 43 73.6584 42.64 72.8384 41.92C72.0184 41.2 71.6084 40.03 71.6084 38.41V29.26H69.6584V26.47H71.6084V22.36H75.0584V26.47H79.0784V29.26H75.0584ZM90.7805 26.2C92.0405 26.2 93.1605 26.47 94.1405 27.01C95.1405 27.55 95.9205 28.35 96.4805 29.41C97.0605 30.47 97.3505 31.75 97.3505 33.25V43H93.9605V33.76C93.9605 32.28 93.5905 31.15 92.8505 30.37C92.1105 29.57 91.1005 29.17 89.8205 29.17C88.5405 29.17 87.5205 29.57 86.7605 30.37C86.0205 31.15 85.6505 32.28 85.6505 33.76V43H82.2305V20.8H85.6505V28.39C86.2305 27.69 86.9605 27.15 87.8405 26.77C88.7405 26.39 89.7205 26.2 90.7805 26.2ZM116.863 34.33C116.863 34.95 116.823 35.51 116.743 36.01H104.113C104.213 37.33 104.703 38.39 105.583 39.19C106.463 39.99 107.543 40.39 108.823 40.39C110.663 40.39 111.963 39.62 112.723 38.08H116.413C115.913 39.6 115.003 40.85 113.683 41.83C112.383 42.79 110.763 43.27 108.823 43.27C107.243 43.27 105.823 42.92 104.563 42.22C103.323 41.5 102.343 40.5 101.623 39.22C100.923 37.92 100.573 36.42 100.573 34.72C100.573 33.02 100.913 31.53 101.593 30.25C102.293 28.95 103.263 27.95 104.503 27.25C105.763 26.55 107.203 26.2 108.823 26.2C110.383 26.2 111.773 26.54 112.993 27.22C114.213 27.9 115.163 28.86 115.843 30.1C116.523 31.32 116.863 32.73 116.863 34.33ZM113.293 33.25C113.273 31.99 112.823 30.98 111.943 30.22C111.063 29.46 109.973 29.08 108.673 29.08C107.493 29.08 106.483 29.46 105.643 30.22C104.803 30.96 104.303 31.97 104.143 33.25H113.293ZM123.649 28.87C124.149 28.03 124.809 27.38 125.629 26.92C126.469 26.44 127.459 26.2 128.599 26.2V29.74H127.729C126.389 29.74 125.369 30.08 124.669 30.76C123.989 31.44 123.649 32.62 123.649 34.3V43H120.229V26.47H123.649V28.87Z" fill="white"/>
<path d="M157 33.3C162.136 33.3 166.3 29.1363 166.3 24C166.3 18.8638 162.136 14.7 157 14.7C151.864 14.7 147.7 18.8638 147.7 24C147.7 29.1363 151.864 33.3 157 33.3Z" fill="#FFCE31"/>
<path d="M160.7 13.1L157 4L153.3 13.1C154.5 12.9 155.8 12.8 157 12.8C158.3 12.8 159.5 12.9 160.7 13.1Z" fill="#FFCE31"/>
<path d="M153.3 34.9L157 44L160.7 34.9C159.5 35.1 158.2 35.2 157 35.2C155.7 35.2 154.5 35.1 153.3 34.9Z" fill="#FFCE31"/>
<path d="M167.9 27.7L177 24L167.9 20.3C168.1 21.5 168.2 22.8 168.2 24C168.2 25.3 168.1 26.5 167.9 27.7Z" fill="#FFCE31"/>
<path d="M146.1 20.3L137 24L146.1 27.7C145.9 26.5 145.8 25.2 145.8 24C145.8 22.7 145.9 21.5 146.1 20.3Z" fill="#FFCE31"/>
<path d="M167.3 19L171.1 9.89999L162 13.7C163 14.4 164 15.2 164.9 16.1C165.8 17 166.6 17.9 167.3 19" fill="#FFCE31"/>
<path d="M146.7 29L142.9 38.1L152 34.3C151 33.6 150 32.8 149.1 31.9C148.2 31 147.4 30.1 146.7 29" fill="#FFCE31"/>
<path d="M162 34.3L171.1 38.1L167.3 29C166.6 30 165.8 31 164.9 31.9C164 32.8 163.1 33.6 162 34.3" fill="#FFCE31"/>
<path d="M152 13.7L142.9 9.89999L146.7 19C147.4 18 148.2 17 149.1 16.1C150 15.2 150.9 14.4 152 13.7" fill="#FFCE31"/>
<path d="M152.2 58.1C151.2 58.1 150.2 57.9 149.3 57.6C145.5 56.3 142.9 52.7 142.9 48.6C142.9 45.9 144.1 43.3 146.1 41.5C146.6 41 147.2 40.6 147.8 40.3L148.4 38.1C149.9 32.6 154.9 28.8 160.5 28.8C161.1 28.8 161.6 28.8 162.3 28.9L163.8 29.2L164 28.7C166.3 24.6 170.6 22 175.2 22C182.3 22 188 27.8 188 35V36.3C188.5 36.5 189.1 36.8 189.6 37.1C193 39.1 195.1 42.8 195.1 46.8C195.1 52 191.6 56.5 186.5 57.7C185.7 57.9 184.8 58 184 58L152.2 58.1" fill="white"/>
<path d="M175.3 24.1C181.3 24.1 186.2 29.1 186.2 35.2V36.1C183.7 36.3 181.4 37.3 179.6 38.9C180.9 38.1 182.5 37.7 184.2 37.7C184.8 37.7 185.4 37.8 186 37.9C187 38.1 187.9 38.5 188.8 39C191.5 40.6 193.4 43.6 193.4 47C193.4 51.4 190.4 55.1 186.3 56C185.6 56.2 185 56.2 184.2 56.2H152.2C151.4 56.2 150.6 56.1 149.9 55.8C146.9 54.8 144.8 52 144.8 48.6C144.8 46.3 145.8 44.3 147.4 42.9C148.1 42.3 148.9 41.8 149.8 41.5C150.6 41.2 151.4 41.1 152.3 41.1C154.7 41.1 156.8 42.3 158.2 44H158.3C156.7 41 153.8 39 150.3 38.6C151.6 34 155.7 30.7 160.6 30.7C161.1 30.7 161.6 30.8 162.1 30.8C163.1 30.9 164 31.2 164.9 31.6C168.2 33.1 170.6 36.2 171.2 40V39.9C171.2 35.6 169 31.9 165.8 29.7C167.6 26.4 171.1 24.1 175.3 24.1V24.1ZM175.3 20.4C170.3 20.4 165.6 23 162.9 27.3H162.6C161.8 27.2 161.2 27.1 160.5 27.1C154.1 27.1 148.3 31.5 146.6 37.7L146.2 39.2C145.7 39.5 145.3 39.8 144.9 40.2C142.4 42.3 141 45.4 141 48.7C141 53.6 144.1 57.9 148.7 59.5C149.8 59.9 151 60.1 152.2 60.1H184.1C185.1 60.1 186 60 187 59.8C192.9 58.4 197 53.2 197 47.1C197 42.5 194.5 38.1 190.5 35.8L189.9 35.5V35.4C189.9 27 183.4 20.4 175.3 20.4V20.4Z" fill="#75D6FF"/>
</svg>
